<mxfile host="Electron" agent="Mozilla/5.0 (Windows NT 10.0; Win64; x64) AppleWebKit/537.36 (KHTML, like Gecko) draw.io/27.0.9 Chrome/134.0.6998.205 Electron/35.4.0 Safari/537.36" version="27.0.9">
  <diagram name="Page-1" id="MqHn0IHDzpLK-1qRCI0l">
    <mxGraphModel dx="826" dy="336" grid="1" gridSize="10" guides="1" tooltips="1" connect="1" arrows="1" fold="1" page="1" pageScale="1" pageWidth="827" pageHeight="1169" math="0" shadow="0">
      <root>
        <mxCell id="0" />
        <mxCell id="1" parent="0" />
        <mxCell id="DVYjWxaKDOzv_T8zt2ZQ-1" value="&lt;b&gt;&lt;font style=&quot;font-size: 14px;&quot;&gt;EXTRA TOPIC&lt;/font&gt;&lt;/b&gt;" style="rounded=1;whiteSpace=wrap;html=1;fillColor=#fff2cc;strokeColor=#d6b656;" vertex="1" parent="1">
          <mxGeometry x="310" y="200" width="120" height="30" as="geometry" />
        </mxCell>
        <mxCell id="DVYjWxaKDOzv_T8zt2ZQ-2" value="Touch&lt;br&gt;hostname&lt;br&gt;&lt;div&gt;mkdir&lt;br&gt;CAT&lt;/div&gt;&lt;div&gt;&lt;br&gt;&lt;/div&gt;&lt;div&gt;&lt;br&gt;&lt;div&gt;MV&lt;/div&gt;&lt;div&gt;CP&lt;/div&gt;&lt;div&gt;echo&lt;/div&gt;&lt;div&gt;rm&lt;/div&gt;&lt;div&gt;scp&lt;/div&gt;&lt;div&gt;Winscp&lt;/div&gt;&lt;div&gt;head&lt;/div&gt;&lt;div&gt;tail&lt;/div&gt;&lt;div&gt;less&lt;/div&gt;&lt;div&gt;more&amp;nbsp;&lt;/div&gt;&lt;/div&gt;" style="rounded=1;whiteSpace=wrap;html=1;fillColor=#dae8fc;strokeColor=#6c8ebf;" vertex="1" parent="1">
          <mxGeometry x="320" y="240" width="130" height="250" as="geometry" />
        </mxCell>
        <mxCell id="DVYjWxaKDOzv_T8zt2ZQ-7" value="" style="edgeStyle=orthogonalEdgeStyle;rounded=0;orthogonalLoop=1;jettySize=auto;html=1;" edge="1" parent="1" source="DVYjWxaKDOzv_T8zt2ZQ-3" target="DVYjWxaKDOzv_T8zt2ZQ-6">
          <mxGeometry relative="1" as="geometry" />
        </mxCell>
        <mxCell id="DVYjWxaKDOzv_T8zt2ZQ-8" value="" style="edgeStyle=orthogonalEdgeStyle;rounded=0;orthogonalLoop=1;jettySize=auto;html=1;" edge="1" parent="1" source="DVYjWxaKDOzv_T8zt2ZQ-3" target="DVYjWxaKDOzv_T8zt2ZQ-6">
          <mxGeometry relative="1" as="geometry" />
        </mxCell>
        <mxCell id="DVYjWxaKDOzv_T8zt2ZQ-9" value="" style="edgeStyle=orthogonalEdgeStyle;rounded=0;orthogonalLoop=1;jettySize=auto;html=1;" edge="1" parent="1" source="DVYjWxaKDOzv_T8zt2ZQ-3" target="DVYjWxaKDOzv_T8zt2ZQ-6">
          <mxGeometry relative="1" as="geometry" />
        </mxCell>
        <mxCell id="DVYjWxaKDOzv_T8zt2ZQ-13" style="edgeStyle=orthogonalEdgeStyle;rounded=0;orthogonalLoop=1;jettySize=auto;html=1;entryX=0;entryY=0.5;entryDx=0;entryDy=0;" edge="1" parent="1" source="DVYjWxaKDOzv_T8zt2ZQ-3" target="DVYjWxaKDOzv_T8zt2ZQ-10">
          <mxGeometry relative="1" as="geometry" />
        </mxCell>
        <mxCell id="DVYjWxaKDOzv_T8zt2ZQ-3" value="1" style="rounded=1;whiteSpace=wrap;html=1;" vertex="1" parent="1">
          <mxGeometry x="520" y="220" width="80" height="30" as="geometry" />
        </mxCell>
        <mxCell id="DVYjWxaKDOzv_T8zt2ZQ-6" value="4" style="whiteSpace=wrap;html=1;rounded=1;" vertex="1" parent="1">
          <mxGeometry x="660" y="205" width="70" height="15" as="geometry" />
        </mxCell>
        <mxCell id="DVYjWxaKDOzv_T8zt2ZQ-10" value="5" style="whiteSpace=wrap;html=1;rounded=1;" vertex="1" parent="1">
          <mxGeometry x="670" y="230" width="60" height="20" as="geometry" />
        </mxCell>
        <mxCell id="DVYjWxaKDOzv_T8zt2ZQ-14" style="edgeStyle=orthogonalEdgeStyle;rounded=0;orthogonalLoop=1;jettySize=auto;html=1;entryX=1;entryY=0.5;entryDx=0;entryDy=0;" edge="1" parent="1" source="DVYjWxaKDOzv_T8zt2ZQ-12" target="DVYjWxaKDOzv_T8zt2ZQ-3">
          <mxGeometry relative="1" as="geometry" />
        </mxCell>
        <mxCell id="DVYjWxaKDOzv_T8zt2ZQ-12" value="6" style="rounded=1;whiteSpace=wrap;html=1;" vertex="1" parent="1">
          <mxGeometry x="670" y="260" width="60" height="20" as="geometry" />
        </mxCell>
        <mxCell id="DVYjWxaKDOzv_T8zt2ZQ-15" value="" style="edgeStyle=orthogonalEdgeStyle;rounded=0;orthogonalLoop=1;jettySize=auto;html=1;" edge="1" parent="1" source="DVYjWxaKDOzv_T8zt2ZQ-19" target="DVYjWxaKDOzv_T8zt2ZQ-20">
          <mxGeometry relative="1" as="geometry" />
        </mxCell>
        <mxCell id="DVYjWxaKDOzv_T8zt2ZQ-16" value="" style="edgeStyle=orthogonalEdgeStyle;rounded=0;orthogonalLoop=1;jettySize=auto;html=1;" edge="1" parent="1" source="DVYjWxaKDOzv_T8zt2ZQ-19" target="DVYjWxaKDOzv_T8zt2ZQ-20">
          <mxGeometry relative="1" as="geometry" />
        </mxCell>
        <mxCell id="DVYjWxaKDOzv_T8zt2ZQ-17" value="" style="edgeStyle=orthogonalEdgeStyle;rounded=0;orthogonalLoop=1;jettySize=auto;html=1;" edge="1" parent="1" source="DVYjWxaKDOzv_T8zt2ZQ-19" target="DVYjWxaKDOzv_T8zt2ZQ-20">
          <mxGeometry relative="1" as="geometry" />
        </mxCell>
        <mxCell id="DVYjWxaKDOzv_T8zt2ZQ-18" style="edgeStyle=orthogonalEdgeStyle;rounded=0;orthogonalLoop=1;jettySize=auto;html=1;entryX=0;entryY=0.5;entryDx=0;entryDy=0;" edge="1" parent="1" source="DVYjWxaKDOzv_T8zt2ZQ-19" target="DVYjWxaKDOzv_T8zt2ZQ-21">
          <mxGeometry relative="1" as="geometry" />
        </mxCell>
        <mxCell id="DVYjWxaKDOzv_T8zt2ZQ-19" value="2" style="rounded=1;whiteSpace=wrap;html=1;" vertex="1" parent="1">
          <mxGeometry x="510" y="325" width="80" height="30" as="geometry" />
        </mxCell>
        <mxCell id="DVYjWxaKDOzv_T8zt2ZQ-20" value="4" style="whiteSpace=wrap;html=1;rounded=1;" vertex="1" parent="1">
          <mxGeometry x="650" y="310" width="70" height="15" as="geometry" />
        </mxCell>
        <mxCell id="DVYjWxaKDOzv_T8zt2ZQ-21" value="5" style="whiteSpace=wrap;html=1;rounded=1;" vertex="1" parent="1">
          <mxGeometry x="660" y="335" width="60" height="20" as="geometry" />
        </mxCell>
        <mxCell id="DVYjWxaKDOzv_T8zt2ZQ-22" style="edgeStyle=orthogonalEdgeStyle;rounded=0;orthogonalLoop=1;jettySize=auto;html=1;entryX=1;entryY=0.5;entryDx=0;entryDy=0;" edge="1" parent="1" source="DVYjWxaKDOzv_T8zt2ZQ-23" target="DVYjWxaKDOzv_T8zt2ZQ-19">
          <mxGeometry relative="1" as="geometry" />
        </mxCell>
        <mxCell id="DVYjWxaKDOzv_T8zt2ZQ-23" value="6" style="rounded=1;whiteSpace=wrap;html=1;" vertex="1" parent="1">
          <mxGeometry x="660" y="365" width="60" height="20" as="geometry" />
        </mxCell>
        <mxCell id="DVYjWxaKDOzv_T8zt2ZQ-24" value="" style="edgeStyle=orthogonalEdgeStyle;rounded=0;orthogonalLoop=1;jettySize=auto;html=1;" edge="1" parent="1" source="DVYjWxaKDOzv_T8zt2ZQ-28" target="DVYjWxaKDOzv_T8zt2ZQ-29">
          <mxGeometry relative="1" as="geometry" />
        </mxCell>
        <mxCell id="DVYjWxaKDOzv_T8zt2ZQ-25" value="" style="edgeStyle=orthogonalEdgeStyle;rounded=0;orthogonalLoop=1;jettySize=auto;html=1;" edge="1" parent="1" source="DVYjWxaKDOzv_T8zt2ZQ-28" target="DVYjWxaKDOzv_T8zt2ZQ-29">
          <mxGeometry relative="1" as="geometry" />
        </mxCell>
        <mxCell id="DVYjWxaKDOzv_T8zt2ZQ-26" value="" style="edgeStyle=orthogonalEdgeStyle;rounded=0;orthogonalLoop=1;jettySize=auto;html=1;" edge="1" parent="1" source="DVYjWxaKDOzv_T8zt2ZQ-28" target="DVYjWxaKDOzv_T8zt2ZQ-29">
          <mxGeometry relative="1" as="geometry" />
        </mxCell>
        <mxCell id="DVYjWxaKDOzv_T8zt2ZQ-27" style="edgeStyle=orthogonalEdgeStyle;rounded=0;orthogonalLoop=1;jettySize=auto;html=1;entryX=0;entryY=0.5;entryDx=0;entryDy=0;" edge="1" parent="1" source="DVYjWxaKDOzv_T8zt2ZQ-28" target="DVYjWxaKDOzv_T8zt2ZQ-30">
          <mxGeometry relative="1" as="geometry" />
        </mxCell>
        <mxCell id="DVYjWxaKDOzv_T8zt2ZQ-28" value="3" style="rounded=1;whiteSpace=wrap;html=1;" vertex="1" parent="1">
          <mxGeometry x="510" y="435" width="80" height="30" as="geometry" />
        </mxCell>
        <mxCell id="DVYjWxaKDOzv_T8zt2ZQ-29" value="4" style="whiteSpace=wrap;html=1;rounded=1;" vertex="1" parent="1">
          <mxGeometry x="650" y="420" width="70" height="15" as="geometry" />
        </mxCell>
        <mxCell id="DVYjWxaKDOzv_T8zt2ZQ-30" value="5" style="whiteSpace=wrap;html=1;rounded=1;" vertex="1" parent="1">
          <mxGeometry x="660" y="445" width="60" height="20" as="geometry" />
        </mxCell>
        <mxCell id="DVYjWxaKDOzv_T8zt2ZQ-31" style="edgeStyle=orthogonalEdgeStyle;rounded=0;orthogonalLoop=1;jettySize=auto;html=1;entryX=1;entryY=0.5;entryDx=0;entryDy=0;" edge="1" parent="1" source="DVYjWxaKDOzv_T8zt2ZQ-32" target="DVYjWxaKDOzv_T8zt2ZQ-28">
          <mxGeometry relative="1" as="geometry" />
        </mxCell>
        <mxCell id="DVYjWxaKDOzv_T8zt2ZQ-32" value="6" style="rounded=1;whiteSpace=wrap;html=1;" vertex="1" parent="1">
          <mxGeometry x="660" y="475" width="60" height="20" as="geometry" />
        </mxCell>
        <mxCell id="DVYjWxaKDOzv_T8zt2ZQ-33" value="" style="verticalLabelPosition=bottom;verticalAlign=top;html=1;shape=mxgraph.basic.tick" vertex="1" parent="1">
          <mxGeometry x="399" y="240" width="30" height="20" as="geometry" />
        </mxCell>
        <mxCell id="DVYjWxaKDOzv_T8zt2ZQ-34" value="" style="verticalLabelPosition=bottom;verticalAlign=top;html=1;shape=mxgraph.basic.tick" vertex="1" parent="1">
          <mxGeometry x="410" y="260" width="30" height="20" as="geometry" />
        </mxCell>
        <mxCell id="DVYjWxaKDOzv_T8zt2ZQ-35" value="" style="verticalLabelPosition=bottom;verticalAlign=top;html=1;shape=mxgraph.basic.tick" vertex="1" parent="1">
          <mxGeometry x="410" y="280" width="30" height="20" as="geometry" />
        </mxCell>
        <mxCell id="DVYjWxaKDOzv_T8zt2ZQ-36" value="" style="verticalLabelPosition=bottom;verticalAlign=top;html=1;shape=mxgraph.basic.tick" vertex="1" parent="1">
          <mxGeometry x="399" y="355" width="30" height="20" as="geometry" />
        </mxCell>
        <mxCell id="DVYjWxaKDOzv_T8zt2ZQ-37" value="" style="verticalLabelPosition=bottom;verticalAlign=top;html=1;shape=mxgraph.basic.tick" vertex="1" parent="1">
          <mxGeometry x="399" y="370" width="30" height="20" as="geometry" />
        </mxCell>
        <mxCell id="DVYjWxaKDOzv_T8zt2ZQ-38" value="" style="verticalLabelPosition=bottom;verticalAlign=top;html=1;shape=mxgraph.basic.tick" vertex="1" parent="1">
          <mxGeometry x="399" y="330" width="30" height="20" as="geometry" />
        </mxCell>
        <mxCell id="DVYjWxaKDOzv_T8zt2ZQ-39" value="" style="verticalLabelPosition=bottom;verticalAlign=top;html=1;shape=mxgraph.basic.tick" vertex="1" parent="1">
          <mxGeometry x="399" y="345" width="30" height="20" as="geometry" />
        </mxCell>
      </root>
    </mxGraphModel>
  </diagram>
</mxfile>
